<svg xmlns="http://www.w3.org/2000/svg" xmlns:xlink="http://www.w3.org/1999/xlink" width="230.01" height="196.88" viewBox="0 0 230.01 196.88"><defs><style>.a{fill:#fff;}.b{fill:url(#a);}.c{fill:url(#b);}.d{fill:url(#c);}.e{fill:url(#d);}</style><linearGradient id="a" x1="50.974" y1="77.423" x2="52.027" y2="76.181" gradientUnits="objectBoundingBox"><stop offset="0" stop-color="#f0ce76"/><stop offset="0.99" stop-color="#f0a638"/></linearGradient><linearGradient id="b" x1="140.864" y1="500.015" x2="143.811" y2="491.906" xlink:href="#a"/><linearGradient id="c" x1="142.663" y1="500.015" x2="145.609" y2="491.906" xlink:href="#a"/><linearGradient id="d" x1="50.974" y1="660.497" x2="52.027" y2="649.752" xlink:href="#a"/></defs><g transform="translate(-82 -78)"><path class="a" d="M24.81,177.68a5.581,5.581,0,0,1-.33.83,4.29,4.29,0,0,1-1.33,1.67,6,6,0,0,1-3.23.9,6.7,6.7,0,0,1-6.1-3,8.19,8.19,0,0,1-6.76,3,6.25,6.25,0,0,1-2.57-.47,6.4,6.4,0,0,1-2.27-1.43A6.9,6.9,0,0,1,.61,177a6.78,6.78,0,0,1,.67-6.73,20.1,20.1,0,0,1,4.47-3.7,9.82,9.82,0,0,1-2.17-5.47,5.41,5.41,0,0,1,1.67-3.63,5.49,5.49,0,0,1,3.9-1.63,6,6,0,0,1,3.6,1.13,3.39,3.39,0,0,1,1.47,3c0,1.9-1.63,3.77-5.17,5.57l3.2,4.4c1,1.43,2,2.8,2.93,4.2a11.649,11.649,0,0,0,.8-1.3,17,17,0,0,0,1.5-3.8,12.88,12.88,0,0,0,.4-2l.83.07c-.6,6-2.63,8.33-2.63,8.33a10.69,10.69,0,0,0,2.8,3.17,4.1,4.1,0,0,0,2.4.77,2.84,2.84,0,0,0,2.53-1.43,3,3,0,0,0,.3-.57Zm-12.06-.83c-1.3-2-2.4-3.63-3.53-5.23s-2.1-3-3-4.27a6.72,6.72,0,0,0-2.53,2.37,5.86,5.86,0,0,0-1,3.17,6.45,6.45,0,0,0,1.83,4.33,5.45,5.45,0,0,0,4.13,2c1.66.02,2.63-.68,4.09-2.38Zm-6.46-17c0,1.2.77,2.87,2.23,4.93q3.7-2.15,3.7-4.7a3.51,3.51,0,0,0-.23-1.33,2.55,2.55,0,0,0-.6-1.07,2.75,2.75,0,0,0-.93-.7,3,3,0,0,0-1.23-.23,2.79,2.79,0,0,0-2.13.87,3.22,3.22,0,0,0-.82,2.23Z" transform="translate(82 78)"/><path class="a" d="M64,180.54H60.3l-2.9-16.73-9.06,16.73L40,164.95l-1.8,15.63H36.7l1.73-15.13c.2-2.1,1.07-7.7-2.67-8.56v-.17c4.73.13,6.33,4.43,7.6,6.77l6.1,11.63,10.3-18.93Z" transform="translate(82 78)"/><path class="a" d="M66.66,180.57l10.93-24.39,11.2,24.39h-4l-2.1-4.6H70.36l-2.07,4.6Zm4.27-5.87H82.05l-5.63-12.26Z" transform="translate(82 78)"/><path class="a" d="M110,180.57h-4.13l-7.76-11H95.38v11H91.75v-21a3.29,3.29,0,0,0-3-3.27v-.17h6.63c3.83,0,11.56-.1,11.56,6.83,0,3.9-2.37,5.57-5.07,6.27Zm-8.17-13.66a3.43,3.43,0,0,0,.6-.93,5.7,5.7,0,0,0,.43-1.27A9.48,9.48,0,0,0,103,163c-.17-5.3-4.27-5.67-5-5.67H95.42v11H98a8.5,8.5,0,0,0,1.3-.1,4.84,4.84,0,0,0,1.8-.63,4.559,4.559,0,0,0,.78-.69Z" transform="translate(82 78)"/><path class="a" d="M128.54,157.68h-8.06v22.89h-3.67V157.68h-8.1v-1.5h19.83Z" transform="translate(82 78)"/><path class="a" d="M137.5,156.18v24.39h-3.33v-21c0-1.43-.9-2.67-3-3.23v-.17Z" transform="translate(82 78)"/><path class="a" d="M161.66,156.18v24.39L143.9,163.15v17.43h-1.5v-18.8c0-1.9-.27-4.67-2.9-5.43v-.17a7.38,7.38,0,0,1,4.87,2.1l15.8,15.33V156.18Z" transform="translate(82 78)"/><path class="a" d="M182,179.31v1.27H166.62v-21c0-1.43-.93-2.67-3-3.23v-.17H182v1.27H170.3v9.66h9.76v1.5H170.3v10.7Z" transform="translate(82 78)"/><path class="a" d="M203.58,179.08v1.5H187.92v-21c0-1.43-.9-2.67-2.93-3.23v-.17h6.27v22.89Z" transform="translate(82 78)"/><path class="a" d="M222.84,179.08v1.5H207.17v-21c0-1.43-.9-2.67-2.93-3.23v-.17h6.27v22.89Z" transform="translate(82 78)"/><path class="a" d="M229.8,156.18v24.39h-3.33v-21c0-1.43-.9-2.67-3-3.23v-.17Z" transform="translate(82 78)"/><path class="a" d="M23.37,149.2c-.32.65-3.23,5.46-10.7,5.46C4.67,154.66,0,148.55,0,141s4.67-13.7,12.67-13.7c7.58,0,10.45,5,10.74,5.49l-.86.9c-8.22-9.87-18-3.34-18,7.29,0,9.77,9.77,17.2,18,7.36Z" transform="translate(82 78)"/><path class="a" d="M51.63,140.8c0,9.51-5.67,13.68-12.67,13.68s-12.67-4.17-12.67-13.68c0-9.19,5.67-13.64,12.67-13.64S51.63,131.54,51.63,140.8Zm-4.31,0c0-8.44-3.73-12.46-8.37-12.46s-8.37,4.09-8.37,12.46c0,8.69,3.77,12.46,8.37,12.46S47.32,149.49,47.32,140.8Z" transform="translate(82 78)"/><path class="a" d="M71.84,147.3c0,2.73-2,7.25-8.22,7.25-4.92,0-8.08-2.12-8.83-7.5H56c.79,4.92,4.88,6,7.25,6,4.2,0,5.21-2.94,5.21-4.24,0-2.76-2.26-4.27-6.57-6.5-2.73-1.4-7.36-3.7-7.36-8.19,0-5.71,5.64-6.86,7.65-6.86,5,0,7.11,2.66,7.83,6.43H68.68a6.19,6.19,0,0,0-6.5-5c-2.23,0-4.6,1.8-4.6,4.06,0,2.66,3.2,4.34,6.5,6C70.33,141.95,71.84,144.17,71.84,147.3Z" transform="translate(82 78)"/><path class="a" d="M93.56,129.35H84.87V154H80.92V129.35H72.2v-1.62H93.56Z" transform="translate(82 78)"/><path class="a" d="M91.4,154l11.78-26.28L115.24,154H110.9l-2.26-5H95.39l-2.23,5Zm4.6-6.32h12l-6.07-13.21Z" transform="translate(82 78)"/><path class="a" d="M146.69,135.13c0,7.58-8.33,7.07-12.46,7.07V154h-3.95V131.43a3.55,3.55,0,0,0-3.2-3.52v-.18h7.15C138.36,127.73,146.69,127.62,146.69,135.13Zm-4.24,0c-.22-5.78-4.67-6.14-5.42-6.14h-2.8V140.8H137c1.47,0,5.63-.07,5.46-5.67Z" transform="translate(82 78)"/><path class="a" d="M154.19,127.73V154H150.6V131.39c0-1.54-1-2.87-3.2-3.48v-.18Z" transform="translate(82 78)"/><path class="a" d="M180.22,127.73V154l-19.14-18.78V154h-1.62V133.76c0-2-.29-5-3.12-5.85v-.18a8,8,0,0,1,5.24,2.26l17,16.52V127.73Z" transform="translate(82 78)"/><path class="a" d="M204.46,129.35h-8.69V154h-3.95V129.35H183.1v-1.62h21.36Z" transform="translate(82 78)"/><path class="a" d="M229.8,140.8c0,9.51-5.67,13.68-12.67,13.68s-12.67-4.17-12.67-13.68c0-9.19,5.67-13.64,12.67-13.64S229.8,131.54,229.8,140.8Zm-4.31,0c0-8.44-3.73-12.46-8.37-12.46s-8.37,4.09-8.37,12.46c0,8.69,3.77,12.46,8.37,12.46S225.49,149.49,225.49,140.8Z" transform="translate(82 78)"/><path class="a" d="M3.5,189.29H4l3.46,7.48h-.6l-.94-2.08H1.56l-.94,2.08H0Zm2.21,4.9-2-4.29-2,4.29Z" transform="translate(82 78)"/><path class="a" d="M13.3,189.34h2.47A3.7,3.7,0,0,1,19.72,193h0a3.72,3.72,0,0,1-3.95,3.71H13.3Zm2.47,6.91a3.15,3.15,0,0,0,3.37-3.18h0a3.17,3.17,0,0,0-3.37-3.2H13.85v6.41Z" transform="translate(82 78)"/><path class="a" d="M24.72,189.34h.61l2.91,6.83,2.92-6.83h.58l-3.27,7.48H28Z" transform="translate(82 78)"/><path class="a" d="M36.8,193.07h0a3.735,3.735,0,1,1,7.47,0h0a3.735,3.735,0,0,1-7.47,0Zm6.89,0h0a3.158,3.158,0,1,0-6.31-.07h0a3.163,3.163,0,1,0,6.32.07Z" transform="translate(82 78)"/><path class="a" d="M50.06,193.07h0a3.71,3.71,0,0,1,3.67-3.84,3.89,3.89,0,0,1,2.71,1l-.36.41a3.35,3.35,0,0,0-2.39-.89A3.15,3.15,0,0,0,50.64,193h0a3.1,3.1,0,0,0,3.18,3.35,3.81,3.81,0,0,0,2.36-.85v-2.13H53.7v-.51h3v2.86a4.47,4.47,0,0,1-2.92,1.11,3.62,3.62,0,0,1-3.72-3.76Z" transform="translate(82 78)"/><path class="a" d="M65.77,189.29h.53l3.46,7.48h-.6l-.94-2.08H63.83l-.94,2.08h-.57Zm2.21,4.9-2-4.29-2,4.29Z" transform="translate(82 78)"/><path class="a" d="M75.57,189.34H78A3.7,3.7,0,0,1,82,193h0a3.72,3.72,0,0,1-4,3.76H75.57ZM78,196.25a3.15,3.15,0,0,0,3.37-3.18h0a3.17,3.17,0,0,0-3.37-3.2H76.12v6.41Z" transform="translate(82 78)"/><path class="a" d="M87.78,193.07h0a3.735,3.735,0,1,1,7.47,0h0a3.735,3.735,0,0,1-7.47,0Zm6.89,0h0a3.163,3.163,0,1,0-6.32-.07h0a3.163,3.163,0,1,0,6.32.07Z" transform="translate(82 78)"/><path class="a" d="M100.84,195.68l.36-.41a3.6,3.6,0,0,0,2.66,1.1c1.11,0,1.88-.63,1.88-1.47h0c0-.78-.41-1.24-2.1-1.58s-2.5-1-2.5-2.09h0a2.15,2.15,0,0,1,2.39-2,3.7,3.7,0,0,1,2.55.9l-.35.43a3.2,3.2,0,0,0-2.22-.84c-1.09,0-1.81.63-1.81,1.4h0c0,.78.4,1.26,2.16,1.62s2.44,1,2.44,2h0c0,1.2-1,2-2.46,2a4.23,4.23,0,0,1-3-1.06Z" transform="translate(82 78)"/><path class="a" d="M122.59,189.29h.53l3.46,7.48H126l-.94-2.08h-4.38l-.94,2.08h-.57Zm2.21,4.9-2-4.29-2,4.29Z" transform="translate(82 78)"/><path class="a" d="M131.75,195.68l.36-.41a3.6,3.6,0,0,0,2.66,1.1c1.11,0,1.88-.63,1.88-1.47h0c0-.78-.41-1.24-2.1-1.58s-2.5-1-2.5-2.09h0a2.15,2.15,0,0,1,2.39-2,3.7,3.7,0,0,1,2.55.9l-.35.43a3.2,3.2,0,0,0-2.22-.84c-1.09,0-1.81.63-1.81,1.4h0c0,.78.4,1.26,2.16,1.62s2.44,1,2.44,2h0c0,1.2-1,2-2.46,2A4.23,4.23,0,0,1,131.75,195.68Z" transform="translate(82 78)"/><path class="a" d="M142.68,195.68l.36-.41a3.6,3.6,0,0,0,2.66,1.1c1.11,0,1.88-.63,1.88-1.47h0c0-.78-.41-1.24-2.1-1.58s-2.5-1-2.5-2.09h0a2.15,2.15,0,0,1,2.39-2,3.7,3.7,0,0,1,2.55.9l-.35.43a3.2,3.2,0,0,0-2.22-.84c-1.09,0-1.81.63-1.81,1.4h0c0,.78.4,1.26,2.16,1.62s2.44,1,2.44,2h0c0,1.2-1,2-2.46,2A4.23,4.23,0,0,1,142.68,195.68Z" transform="translate(82 78)"/><path class="a" d="M153.86,193.07h0a3.735,3.735,0,1,1,7.47,0h0a3.735,3.735,0,0,1-7.47,0Zm6.89,0h0a3.164,3.164,0,1,0-6.32-.02h0a3.164,3.164,0,1,0,6.32.02Z" transform="translate(82 78)"/><path class="a" d="M167.12,193.07h0a3.73,3.73,0,0,1,3.71-3.84,3.91,3.91,0,0,1,2.88,1.19l-.39.4a3.41,3.41,0,0,0-2.5-1.09,3.17,3.17,0,0,0-3.13,3.32h0a3.2,3.2,0,0,0,3.14,3.34,3.4,3.4,0,0,0,2.56-1.16l.37.36a3.91,3.91,0,0,1-2.95,1.29,3.69,3.69,0,0,1-3.69-3.81Z" transform="translate(82 78)"/><path class="a" d="M179.59,189.34h.55v7.42h-.55Z" transform="translate(82 78)"/><path class="a" d="M189.48,189.29H190l3.46,7.48h-.6l-.94-2.08h-4.38l-.94,2.08H186Zm2.21,4.9-2-4.29-2,4.29Z" transform="translate(82 78)"/><path class="a" d="M199.29,189.34h2.47A3.7,3.7,0,0,1,205.7,193h0a3.72,3.72,0,0,1-3.95,3.71h-2.47Zm2.47,6.91a3.15,3.15,0,0,0,3.37-3.18h0a3.17,3.17,0,0,0-3.37-3.2h-1.92v6.41Z" transform="translate(82 78)"/><path class="a" d="M211.49,193.07h0a3.735,3.735,0,1,1,7.47,0h0a3.735,3.735,0,0,1-7.47,0Zm6.89,0h0a3.164,3.164,0,1,0-6.32-.02h0a3.169,3.169,0,1,0,6.33.02Z" transform="translate(82 78)"/><path class="a" d="M224.55,195.68l.36-.41a3.6,3.6,0,0,0,2.66,1.1c1.11,0,1.88-.63,1.88-1.47h0c0-.78-.41-1.24-2.1-1.58s-2.5-1-2.5-2.09h0a2.15,2.15,0,0,1,2.39-2,3.7,3.7,0,0,1,2.55.9l-.35.43a3.2,3.2,0,0,0-2.22-.84c-1.09,0-1.81.63-1.81,1.4h0c0,.78.4,1.26,2.16,1.62s2.44,1,2.44,2h0c0,1.2-1,2-2.46,2a4.23,4.23,0,0,1-3-1.06Z" transform="translate(82 78)"/><path class="b" d="M115,0C83.44,0,57.85,22.15,57.85,49.48c0,22.42,17.23,41.34,40.84,47.42C85.77,89.4,76.84,73.29,76.84,54.62,76.84,28.81,93.92,7.88,115,7.88s38.16,20.93,38.16,46.75c0,18.67-8.94,34.78-21.85,42.27,23.61-6.08,40.84-25,40.84-47.42C172.15,22.15,146.56,0,115,0Z" transform="translate(82 78)"/><path class="c" d="M172.15,82.05h-14.6l-14.24,8.31-12,6.53h40.84Z" transform="translate(82 78)"/><path class="d" d="M57.85,82.05h14.6l14.24,8.31,12,6.53H57.85Z" transform="translate(82 78)"/><rect class="e" width="114.3" height="11.2" transform="translate(139.85 182.71)"/></g></svg>