<svg xmlns="http://www.w3.org/2000/svg" width="49.9" height="50.9" viewBox="0 0 49.9 50.9"><defs><style>.a{fill:#e29930;}</style></defs><g transform="translate(-106.8 -546.2)"><path class="a" d="M124.9,574.3a1.216,1.216,0,0,0-1.2-1.2h-4a1.216,1.216,0,0,0-1.2,1.2v4a1.216,1.216,0,0,0,1.2,1.2h4a1.216,1.216,0,0,0,1.2-1.2v-4Z"/><path class="a" d="M135,574.3a1.216,1.216,0,0,0-1.2-1.2h-4a1.216,1.216,0,0,0-1.2,1.2v4a1.216,1.216,0,0,0,1.2,1.2h4a1.216,1.216,0,0,0,1.2-1.2Z"/><path class="a" d="M145,574.3a1.216,1.216,0,0,0-1.2-1.2h-4a1.216,1.216,0,0,0-1.2,1.2v4a1.216,1.216,0,0,0,1.2,1.2h4a1.216,1.216,0,0,0,1.2-1.2Z"/><path class="a" d="M124.9,584.4a1.216,1.216,0,0,0-1.2-1.2h-4a1.216,1.216,0,0,0-1.2,1.2v4a1.216,1.216,0,0,0,1.2,1.2h4a1.216,1.216,0,0,0,1.2-1.2v-4Z"/><path class="a" d="M135,584.4a1.216,1.216,0,0,0-1.2-1.2h-4a1.216,1.216,0,0,0-1.2,1.2v4a1.216,1.216,0,0,0,1.2,1.2h4a1.216,1.216,0,0,0,1.2-1.2Z"/><path class="a" d="M145,584.4a1.216,1.216,0,0,0-1.2-1.2h-4a1.216,1.216,0,0,0-1.2,1.2v4a1.216,1.216,0,0,0,1.2,1.2h4a1.216,1.216,0,0,0,1.2-1.2v-4Z"/><path class="a" d="M152.3,551.8V558a5.015,5.015,0,0,1-5,5H144a5.037,5.037,0,0,1-5.1-5v-6.2H124.5V558a5.037,5.037,0,0,1-5.1,5h-3.2a4.951,4.951,0,0,1-5-5v-6.2a4.616,4.616,0,0,0-4.4,4.6v36.1a4.588,4.588,0,0,0,4.6,4.6h40.7a4.653,4.653,0,0,0,4.6-4.6V556.4A4.616,4.616,0,0,0,152.3,551.8Zm-1.5,38.5a2.006,2.006,0,0,1-2,2H114.6a2.006,2.006,0,0,1-2-2V571.6a2.006,2.006,0,0,1,2-2h34.2a2.006,2.006,0,0,1,2,2v18.7Z"/><path class="a" d="M116.3,559.7h3.1a1.685,1.685,0,0,0,1.7-1.7V547.9a1.685,1.685,0,0,0-1.7-1.7h-3.1a1.685,1.685,0,0,0-1.7,1.7V558A1.752,1.752,0,0,0,116.3,559.7Z"/><path class="a" d="M144,559.7h3.1a1.685,1.685,0,0,0,1.7-1.7V547.9a1.685,1.685,0,0,0-1.7-1.7H144a1.685,1.685,0,0,0-1.7,1.7V558A1.685,1.685,0,0,0,144,559.7Z"/></g></svg>