<svg xmlns="http://www.w3.org/2000/svg" width="60.5" height="40.4" viewBox="0 0 60.5 40.4"><defs><style>.a{fill:#e29930;}</style></defs><g transform="translate(-100 -424)"><path class="a" d="M31.1,19.7c4.5,0,8.1-4.4,8.1-9.9C39.2,4.4,38,0,31.1,0S23,4.4,23,9.9C22.9,15.3,26.6,19.7,31.1,19.7Z" transform="translate(100 424)"/><path class="a" d="M15.7,34.8Z" transform="translate(100 424)"/><path class="a" d="M46.4,35.1Z" transform="translate(100 424)"/><path class="a" d="M46.4,34.4c-.2-9.5-1.4-12.2-10.9-13.9a5.551,5.551,0,0,1-4.4,1.7,5.551,5.551,0,0,1-4.4-1.7C17.3,22.2,16,24.9,15.8,34.1v1.7s2.3,4.6,15.3,4.6c13.1,0,15.3-4.6,15.3-4.6V34.4Z" transform="translate(100 424)"/><path class="a" d="M49,19.8c3.4,0,6.1-3.3,6.1-7.4S54.2,5,49,5s-6.1,3.3-6.1,7.4S45.6,19.8,49,19.8Z" transform="translate(100 424)"/><path class="a" d="M37.5,31.1Z" transform="translate(100 424)"/><path class="a" d="M11.5,19.8c3.4,0,6.1-3.3,6.1-7.4S16.7,5,11.5,5,5.4,8.3,5.4,12.4,8.1,19.8,11.5,19.8Z" transform="translate(100 424)"/><path class="a" d="M14.3,34.8h0v-.7c.1-6.6.9-10.3,4.6-12.5a16.817,16.817,0,0,0-4.2-1.1,4.191,4.191,0,0,1-3.3,1.3,4.191,4.191,0,0,1-3.3-1.3c-7,1.3-8,3.3-8.1,10.2v1.2s1.7,3.4,11.5,3.4a26.224,26.224,0,0,0,2.9-.1Z" transform="translate(100 424)"/><path class="a" d="M60.4,30.8c-.1-7.1-1-9.1-8.1-10.4A4.191,4.191,0,0,1,49,21.7a4.191,4.191,0,0,1-3.3-1.3,21.315,21.315,0,0,0-3.2.8c4.3,2.2,5.2,6,5.3,13.2h0v.9H49c9.8,0,11.5-3.4,11.5-3.4v-.6C60.4,31.3,60.4,31.3,60.4,30.8Z" transform="translate(100 424)"/></g></svg>