<svg xmlns="http://www.w3.org/2000/svg" viewBox="0 0 39.51 39.51"><defs><style>.cls-1{fill:#e29930;}.cls-2{fill:#fff;}</style></defs><title>editar_2</title><g id="Camada_2" data-name="Camada 2"><g id="Camada_1-2" data-name="Camada 1"><path class="cls-1" d="M31.22,0H8.29A8.29,8.29,0,0,0,0,8.29V31.22a8.29,8.29,0,0,0,8.29,8.29H31.22a8.29,8.29,0,0,0,8.29-8.29V8.29A8.29,8.29,0,0,0,31.22,0Z"/><path class="cls-2" d="M22,13.58l3.79,3.79L16.22,27l-3.79-3.79Zm6.67-.91L27,11a1.68,1.68,0,0,0-2.37,0L23,12.59l3.79,3.79,1.89-1.89A1.29,1.29,0,0,0,28.69,12.66ZM10.45,28.5A.43.43,0,0,0,11,29l4.22-1L11.41,24.2Z"/></g></g></svg>