<svg xmlns="http://www.w3.org/2000/svg" viewBox="0 0 20 21.82"><defs><style>.cls-1{fill:#e9e9e9;}</style></defs><title>excluir</title><g id="Camada_2" data-name="Camada 2"><g id="Camada_1-2" data-name="Camada 1"><path class="cls-1" d="M19.87,3.76a.44.44,0,0,0-.33-.13H15.16l-1-2.37a2,2,0,0,0-.77-.9A2,2,0,0,0,12.27,0H7.73A2,2,0,0,0,6.61.37a2,2,0,0,0-.77.9l-1,2.37H.45A.44.44,0,0,0,0,4.09V5a.44.44,0,0,0,.45.45H1.82V19a3.11,3.11,0,0,0,.67,2,2,2,0,0,0,1.61.83H15.91A2,2,0,0,0,17.51,21a3.23,3.23,0,0,0,.67-2V5.45h1.36A.44.44,0,0,0,20,5V4.09A.44.44,0,0,0,19.87,3.76ZM7.51,2a.4.4,0,0,1,.24-.16h4.5A.4.4,0,0,1,12.5,2l.68,1.66H6.82Zm8.85,16.95a1.61,1.61,0,0,1-.1.58,1.28,1.28,0,0,1-.21.38c-.07.08-.12.12-.15.12H4.09s-.08,0-.15-.12a1.27,1.27,0,0,1-.21-.38,1.61,1.61,0,0,1-.1-.58V5.45H16.36V18.92Z"/><path class="cls-1" d="M5.91,17.27h.91a.44.44,0,0,0,.45-.45V8.64a.44.44,0,0,0-.45-.45H5.91a.44.44,0,0,0-.45.45v8.18a.44.44,0,0,0,.45.45Z"/><path class="cls-1" d="M9.55,17.27h.91a.44.44,0,0,0,.45-.45V8.64a.44.44,0,0,0-.45-.45H9.55a.44.44,0,0,0-.45.45v8.18a.44.44,0,0,0,.45.45Z"/><path class="cls-1" d="M13.18,17.27h.91a.44.44,0,0,0,.45-.45V8.64a.44.44,0,0,0-.45-.45h-.91a.44.44,0,0,0-.45.45v8.18a.44.44,0,0,0,.45.45Z"/></g></g></svg>