<svg xmlns="http://www.w3.org/2000/svg" width="19.837" height="19.775" viewBox="0 0 19.837 19.775"><defs><style>.a{fill:#c18b5c;}</style></defs><path class="a" d="M680.834,429.2a6.224,6.224,0,0,0-6.242,6.242,7,7,0,0,0,.371,2.225l-7.663,7.663v3.646h3.646V446.75h2.225v-2.225H675.4l3.275-3.275a6.465,6.465,0,0,0,2.225.371,6.224,6.224,0,0,0,6.242-6.242A6.305,6.305,0,0,0,680.834,429.2Zm1.854,6.612a2.178,2.178,0,0,1-2.225-2.225,2.142,2.142,0,0,1,2.225-2.225,2.225,2.225,0,1,1,0,4.449Z" transform="translate(-667.3 -429.2)"/></svg>