<svg xmlns="http://www.w3.org/2000/svg" width="59.733" height="48.533" viewBox="0 0 59.733 48.533"><defs><style>.a{fill:#e29930;}</style></defs><g transform="translate(0 -3)"><g transform="translate(0 3)"><path class="a" d="M52.266,10.467V3H0V44.066s0,7.467,7.467,7.467H54.133s5.6-.116,5.6-7.467v-33.6ZM7.467,47.8c-3.733,0-3.733-3.733-3.733-3.733V6.733h44.8V44.066A5.4,5.4,0,0,0,49.795,47.8Z" transform="translate(0 -3)"/><rect class="a" width="37.333" height="3.733" transform="translate(7.467 11.2)"/><rect class="a" width="13.067" height="3.733" transform="translate(28 33.6)"/><rect class="a" width="16.8" height="3.733" transform="translate(28 26.133)"/><rect class="a" width="16.8" height="3.733" transform="translate(28 18.667)"/><rect class="a" width="16.8" height="18.667" transform="translate(7.467 18.667)"/></g></g></svg>