<svg xmlns="http://www.w3.org/2000/svg" width="39.457" height="46.204" viewBox="0 0 39.457 46.204"><defs><style>.a{fill:#e29930;}</style></defs><g transform="translate(-399.895 -124)"><path class="a" d="M28.838,19.133A6.188,6.188,0,0,1,27.1,16.028c-2.613,1.916-5.607,6.208-3.5,12.906,1.33,4.228.918,8.535-1.061,11.243a5.83,5.83,0,0,1-4.782,2.518,8.858,8.858,0,0,1-7.585-4.038,3.364,3.364,0,0,1-.047-3.547,27.5,27.5,0,0,0,3.246-7.49,9.223,9.223,0,0,0,3.024-1.013,2.882,2.882,0,0,0,1.52-2.217c4.133-3.738,6.049-10.48,6.16-10.88A1.743,1.743,0,0,0,23.2,11.5c.567-5.066-1.3-7.615-2.443-8.644a1.268,1.268,0,0,0-.534-1.283L18.15.208a1.045,1.045,0,0,0-1.521.4l-.981,1.914A.938.938,0,0,0,16.234,3.9l2.344.7a1.529,1.529,0,0,0,1.649-.634c.934.982,2.28,3.183,1.821,7.363a1.788,1.788,0,0,0-1.378,1.251c-.57,2.027-2.185,6.208-4.606,8.709a2.87,2.87,0,0,0-2.438.143,3.45,3.45,0,0,1-1.52.428H12a3.476,3.476,0,0,1-1.615-.459,2.863,2.863,0,0,0-2.407-.19,23.062,23.062,0,0,1-4.518-8.614,1.74,1.74,0,0,0-1.378-1.251c-.459-4.18.886-6.382,1.821-7.364a1.529,1.529,0,0,0,1.644.635l2.344-.7a.938.938,0,0,0,.586-1.378L7.509.609a1.034,1.034,0,0,0-1.521-.4L3.9,1.556A1.282,1.282,0,0,0,3.36,2.839C2.236,3.884.352,6.433.922,11.485a1.792,1.792,0,0,0-.852,2.027c.111.38,1.964,6.9,5.954,10.688a2.888,2.888,0,0,0,1.488,2.3,9.468,9.468,0,0,0,2.249.918,23.183,23.183,0,0,1-2.645,5.827,6.856,6.856,0,0,0-.047,7.126,12.351,12.351,0,0,0,10.657,5.859,9.3,9.3,0,0,0,7.633-3.959c2.676-3.642,3.262-9.026,1.583-14.378C25.4,22.933,27.461,20.289,28.838,19.133Z" transform="translate(399.887 123.976)"/><path class="a" d="M182.709,59.035a6.255,6.255,0,1,0-12.51.016v.127a6.6,6.6,0,0,0,.158,1.251h-.016a6.188,6.188,0,0,0,1.742,3.1l.016-.016a6.26,6.26,0,0,0,10.61-4.482Zm-6.254,2.438a2.454,2.454,0,1,1,2.438-2.454A2.454,2.454,0,0,1,176.455,61.473Z" transform="translate(256.641 79.561)"/></g></svg>