<svg xmlns="http://www.w3.org/2000/svg" width="62.188" height="72.822" viewBox="0 0 62.188 72.822"><defs><style>.a{fill:#4d4d4d;}.b{fill:#e29930;}</style></defs><g transform="translate(-399.895 -124)"><path class="a" d="M45.447,30.142A9.753,9.753,0,0,1,42.7,25.247c-4.118,3.02-8.837,9.784-5.516,20.341,2.1,6.664,1.448,13.452-1.672,17.72a9.188,9.188,0,0,1-7.537,3.968c-4.967,0-9.883-2.621-11.955-6.364a5.3,5.3,0,0,1-.075-5.59,43.336,43.336,0,0,0,5.116-11.8,14.536,14.536,0,0,0,4.767-1.6,4.543,4.543,0,0,0,2.4-3.494c6.514-5.891,9.533-16.517,9.708-17.148a2.747,2.747,0,0,0-1.368-3.17c.894-7.984-2.051-12-3.85-13.624a2,2,0,0,0-.842-2.022L28.6.314a1.646,1.646,0,0,0-2.4.631L24.659,3.962a1.478,1.478,0,0,0,.924,2.171l3.694,1.1a2.41,2.41,0,0,0,2.6-1c1.473,1.548,3.594,5.016,2.87,11.6a2.817,2.817,0,0,0-2.171,1.972c-.9,3.2-3.444,9.784-7.259,13.727a4.524,4.524,0,0,0-3.843.225,5.438,5.438,0,0,1-2.4.674H18.9a5.478,5.478,0,0,1-2.546-.724,4.513,4.513,0,0,0-3.794-.3C8.837,29.443,6.312,23,5.442,19.835A2.743,2.743,0,0,0,3.27,17.863C2.547,11.274,4.667,7.8,6.14,6.257a2.41,2.41,0,0,0,2.591,1l3.694-1.1a1.478,1.478,0,0,0,.924-2.171L11.831.946a1.63,1.63,0,0,0-2.4-.631L6.14,2.439A2.021,2.021,0,0,0,5.291,4.46C3.52,6.108.55,10.126,1.448,18.087A2.824,2.824,0,0,0,.1,21.282c.175.6,3.1,10.881,9.384,16.846a4.551,4.551,0,0,0,2.346,3.619A14.923,14.923,0,0,0,15.379,43.2a36.538,36.538,0,0,1-4.168,9.184,10.805,10.805,0,0,0-.075,11.231c3.07,5.516,9.808,9.235,16.8,9.235a14.651,14.651,0,0,0,12.03-6.24c4.218-5.74,5.141-14.226,2.5-22.662C40.033,36.132,43.277,31.964,45.447,30.142Z" transform="translate(399.887 123.976)"/><path class="b" d="M189.916,62.634a9.858,9.858,0,1,0-19.717.025v.2a10.4,10.4,0,0,0,.249,1.971h-.025a9.753,9.753,0,0,0,2.746,4.892l.025-.025a9.867,9.867,0,0,0,16.722-7.063Zm-9.858,3.843a3.868,3.868,0,1,1,3.843-3.868A3.868,3.868,0,0,1,180.059,66.477Z" transform="translate(272.165 84.371)"/></g></svg>