<svg xmlns="http://www.w3.org/2000/svg" viewBox="0 0 68.45 68.45"><defs><style>.cls-1{fill:#4d4d4d;}.cls-2{fill:#e29930;}</style></defs><title>processos</title><g id="Camada_2" data-name="Camada 2"><g id="Camada_1-2" data-name="Camada 1"><path class="cls-1" d="M52.07,11.69a6,6,0,0,0-1.76-4.25L44.64,1.76A6.15,6.15,0,0,0,40.35,0H40V12H52.07v-.34Z"/><path class="cls-1" d="M36.62,41.38a8,8,0,0,1,1.93-3.13L52.12,24.73V16H38a2,2,0,0,1-1.94-2V0H6A6,6,0,0,0,0,6V62.43a6,6,0,0,0,6,6h40a6.07,6.07,0,0,0,6.07-6v-15l-2.2,2.15a8,8,0,0,1-3.12,1.92l-6.38,2.13-1,.05a5,5,0,0,1-4.75-6.61ZM10,36.09H30a2,2,0,1,1,0,4H10a2,2,0,0,1,0-4Zm-2-6a2,2,0,0,1,2-2H30a2,2,0,1,1,0,4H10A2,2,0,0,1,8,30.08Zm0,16a2,2,0,0,1,2-2H30a2,2,0,1,1,0,4H10A2,2,0,0,1,8,46.12Zm30,10a2,2,0,1,1,0,4H26a2,2,0,0,1,0-4ZM10,24.06a2,2,0,0,1,0-4H38a2,2,0,1,1,0,4Z"/><path class="cls-2" d="M40.25,43.15l-1.74,5.23a1,1,0,0,0,1.27,1.27L45,47.91Z"/><path class="cls-2" d="M55.83,26.64,42.62,39.85l5.7,5.7L61.52,32.34Z"/><path class="cls-2" d="M67.27,20.89a4.19,4.19,0,0,0-5.69,0l-2.91,2.91,5.69,5.69,2.91-2.91A4,4,0,0,0,67.27,20.89Z"/><path d="M67.27,26.59h0Z"/><path d="M67.28,26.58l0,0Z"/><path d="M67.3,26.56Z"/></g></g></svg>