<svg xmlns="http://www.w3.org/2000/svg" viewBox="0 0 39.51 39.51"><defs><style>.cls-1{fill:#e29930;}.cls-2{fill:#fff;}</style></defs><title>salvar</title><g id="Camada_2" data-name="Camada 2"><g id="Camada_1-2" data-name="Camada 1"><path class="cls-1" d="M31.22,0H8.29A8.29,8.29,0,0,0,0,8.29V31.22a8.29,8.29,0,0,0,8.29,8.29H31.22a8.29,8.29,0,0,0,8.29-8.29V8.29A8.29,8.29,0,0,0,31.22,0Z"/><path class="cls-2" d="M21,16.42V12.59H23.2v3.83Z"/><path class="cls-2" d="M29.25,16.06h0a2.86,2.86,0,0,0-.39-1.39A12.42,12.42,0,0,0,26.76,12,7.5,7.5,0,0,0,25,10.67a2,2,0,0,0-.91-.22h-11a3,3,0,0,0-.61.05,2.65,2.65,0,0,0-2.17,2.67c0,1.69,0,3.37,0,5.06h0v3c0,.07,0,.14,0,.22h0v2.9h0q0,1,0,2.07a2.28,2.28,0,0,0,0,.41A2.67,2.67,0,0,0,13,29.06H26.54a2.66,2.66,0,0,0,2.7-2.72q0-3.5,0-7h0ZM14,12.52a.89.89,0,0,1,.94-.9h8.48a.88.88,0,0,1,.93.93q0,2,0,4a.9.9,0,0,1-1,1H14.91a.9.9,0,0,1-.91-.9Q14,14.58,14,12.52ZM25.56,27.73H13.62a1,1,0,0,1-1-1c0-1.82,0-3.64,0-5.47a.69.69,0,0,0,0-.07V19.95a.63.63,0,0,1,.61-.63H25.58a1,1,0,0,1,1,1c0,2.15,0,4.29,0,6.44A1,1,0,0,1,25.56,27.73Z"/></g></g></svg>