<svg xmlns="http://www.w3.org/2000/svg" width="101.8" height="68" viewBox="0 0 101.8 68"><defs><style>.a{fill:#e29930;}.b{fill:#4d4d4d;}</style></defs><g transform="translate(-475.9 -49.3)"><path class="a" d="M528.2,82.5c7.6,0,13.7-7.4,13.7-16.6s-2-16.6-13.7-16.6-13.7,7.4-13.7,16.6S520.6,82.5,528.2,82.5Z"/><path class="a" d="M502.3,107.9Z"/><path class="a" d="M554,108.4Z"/><path class="a" d="M554,107.2c-.3-16-2.3-20.6-18.3-23.4,0,0-2.3,2.9-7.5,2.9s-7.5-2.9-7.5-2.9c-15.8,2.9-18,7.3-18.3,22.9v2.9s3.8,7.7,25.9,7.7c22,0,25.9-7.7,25.9-7.7v-1.2C554,108.4,554,108.3,554,107.2Z"/><path class="b" d="M558.4,82.7c5.7,0,10.2-5.6,10.2-12.4,0-6.9-1.5-12.4-10.2-12.4s-10.2,5.6-10.2,12.4C548.2,77.2,552.7,82.7,558.4,82.7Z"/><path class="b" d="M539.1,101.7Z"/><path class="b" d="M495.2,82.7c5.7,0,10.2-5.6,10.2-12.4,0-6.9-1.5-12.4-10.2-12.4S485,63.5,485,70.3C484.9,77.2,489.5,82.7,495.2,82.7Z"/><path class="b" d="M500,107.9v-1.2c.2-11.1,1.6-17.3,7.8-21.1a30.154,30.154,0,0,0-7-1.9s-1.7,2.1-5.6,2.1-5.6-2.1-5.6-2.1c-11.8,2.1-13.5,5.5-13.7,17.1V103s2.8,5.7,19.3,5.7c1.8,0,3.4-.1,4.8-.2Z"/><path class="b" d="M577.7,101.2c-.2-12-1.8-15.4-13.7-17.5,0,0-1.7,2.1-5.6,2.1s-5.6-2.1-5.6-2.1a43.07,43.07,0,0,0-5.4,1.3c7.2,3.8,8.7,10.1,8.9,22.2h0v1.4h2c16.5,0,19.3-5.7,19.3-5.7V102C577.7,102.1,577.7,102,577.7,101.2Z"/></g></svg>