<svg xmlns="http://www.w3.org/2000/svg" width="26.524" height="16.65" viewBox="0 0 26.524 16.65"><defs><style>.a{fill:#939393;}</style></defs><path class="a" d="M13.262,0A14.891,14.891,0,0,0,0,8.325,14.891,14.891,0,0,0,13.262,16.65,14.781,14.781,0,0,0,26.524,8.325,14.781,14.781,0,0,0,13.262,0Zm6.583,4.453a12.323,12.323,0,0,1,3.872,3.872A12.323,12.323,0,0,1,19.844,12.2a12.166,12.166,0,0,1-6.583,1.936A12.413,12.413,0,0,1,6.679,12.2,12.323,12.323,0,0,1,2.807,8.325,12.323,12.323,0,0,1,6.679,4.453c.1-.1.194-.1.29-.194a8.251,8.251,0,0,0-.29,2.226,6.679,6.679,0,0,0,13.359,0,5.679,5.679,0,0,0-.387-2.226ZM13.262,5.615a2.563,2.563,0,0,1-2.517,2.517,2.42,2.42,0,0,1-2.42-2.517,2.469,2.469,0,1,1,4.937,0Z"/></svg>